This is just the interview.										

													

Enjoy and please share.											

													

				

******************************************************************************************************

******************************************************************************************************	

													

													

													

													

								

Ellen_Robert_Pattinson_720p_20110420_TTL.avi
Format                           : AVI
Format/Info                      : Audio Video Interleave
File size                        : 535 MiB
Duration                         : 35mn 39s
Overall bit rate                 : 2 099 Kbps
Movie name                       : Ellen_Robert Pattinson_720p_20110420_TTL.mpg
Director                         : created.with.SUPER(C).v2010.bld.37
Writing application              : SUPER(C)   

Video
ID                               : 0
Format                           : MPEG-4 Visual
Format profile                   : Simple@L3
Format settings, BVOP            : No
Format settings, QPel            : No
Format settings, GMC             : No warppoints
Format settings, Matrix          : Default (H.263)
Codec ID                         : XVID
Codec ID/Hint                    : XviD
Duration                         : 17mn 49s
Bit rate                         : 4 073 Kbps
Width                            : 1 280 pixels
Height                           : 720 pixels
Display aspect ratio             : 16:9
Frame rate                       : 29.970 fps
Color space                      : YUV
Chroma subsampling               : 4:2:0
Bit depth                        : 8 bits
Scan type                        : Progressive
Bits/(Pixel*Frame)               : 0.147
Stream size                      : 519 MiB (97%)
Writing library                  : XviD 1.1.2 (UTC 2006-11-01)

Audio
ID                               : 1
Format                           : MPEG Audio
Format version                   : Version 2
Format profile                   : Layer 3
Mode                             : Joint stereo
Mode extension                   : MS Stereo
Codec ID                         : 55
Codec ID/Hint                    : MP3
Duration                         : 35mn 39s
Bit rate mode                    : Constant
Bit rate                         : 112 Kbps
Channel(s)                       : 2 channels
Sampling rate                    : 22.05 KHz
Stream size                      : 14.3 MiB (3%)
Alignment                        : Aligned on interleaves
Interleave, duration             : 26 ms (0.78 video frame)
Interleave, preload duration     : 26 ms




